<svg id="图层_1" data-name="图层 1" xmlns="http://www.w3.org/2000/svg" xmlns:xlink="http://www.w3.org/1999/xlink" viewBox="0 0 29.06 20.93"><defs><style>.cls-1{fill:#fee7ec;}.cls-2{fill:#e5dbff;}.cls-15,.cls-3{fill:#150d9c;}.cls-4{fill:url(#未命名的渐变);}.cls-5{fill:url(#未命名的渐变_2);}.cls-6{fill:url(#未命名的渐变_3);}.cls-7{fill:url(#未命名的渐变_4);}.cls-22,.cls-8{fill:#0d035c;}.cls-9{fill:url(#未命名的渐变_5);}.cls-10,.cls-15,.cls-22{opacity:0.3;}.cls-11{fill:url(#未命名的渐变_6);}.cls-12{fill:url(#未命名的渐变_7);}.cls-13{fill:url(#未命名的渐变_8);}.cls-14{fill:#a8bcfb;}.cls-15,.cls-22{isolation:isolate;}.cls-16{fill:#7d9af8;}.cls-17{fill:#a7a9f9;}.cls-18{fill:#ffe0e4;}.cls-19{fill:#fff;}.cls-20{fill:url(#未命名的渐变_9);}.cls-21{fill:url(#未命名的渐变_10);}.cls-23{fill:#b8a1d7;}.cls-24{fill:#fc899f;}.cls-25{fill:url(#未命名的渐变_11);}.cls-26{fill:#f9f7f9;}.cls-27{fill:#2329f0;}.cls-28{fill:url(#未命名的渐变_12);}.cls-29{fill:url(#未命名的渐变_13);}.cls-30{fill:url(#未命名的渐变_14);}.cls-31{fill:#673ab7;}.cls-32{fill:url(#未命名的渐变_15);}.cls-33{fill:#ba539a;}.cls-34{fill:#2657f4;}.cls-35{fill:#5179f6;}.cls-36{fill:url(#未命名的渐变_16);}.cls-37{fill:#fdb8c5;}.cls-38{fill:url(#未命名的渐变_17);}</style><linearGradient id="未命名的渐变" x1="-573.05" y1="787.73" x2="-572.57" y2="787.73" gradientTransform="matrix(-1, 0, 0, 1, -550.94, -770)" gradientUnits="userSpaceOnUse"><stop offset="0" stop-color="#2329f0"/><stop offset="0.32" stop-color="#2433f1"/><stop offset="0.87" stop-color="#264ff3"/><stop offset="1" stop-color="#2657f4"/></linearGradient><linearGradient id="未命名的渐变_2" x1="-312.43" y1="292.83" x2="-311.85" y2="292.83" gradientTransform="matrix(-0.67, 0.74, 0.74, 0.67, -409.77, 52.13)" xlink:href="#未命名的渐变"/><linearGradient id="未命名的渐变_3" x1="-786.31" y1="924.31" x2="-785.83" y2="924.31" gradientTransform="matrix(-0.94, -0.34, -0.34, 0.94, -397.35, -1120.62)" xlink:href="#未命名的渐变"/><linearGradient id="未命名的渐变_4" x1="-571.28" y1="787.35" x2="-571.42" y2="786.36" xlink:href="#未命名的渐变"/><linearGradient id="未命名的渐变_5" x1="-573.71" y1="789.01" x2="-568.5" y2="789.01" gradientTransform="matrix(-1, 0, 0, 1, -550.94, -770)" gradientUnits="userSpaceOnUse"><stop offset="0" stop-color="#673ab7"/><stop offset="0.17" stop-color="#6f44ba"/><stop offset="0.47" stop-color="#8561c3"/><stop offset="0.85" stop-color="#a98ed1"/><stop offset="1" stop-color="#b8a1d7"/></linearGradient><linearGradient id="未命名的渐变_6" x1="-1627.8" y1="789.03" x2="-1622.61" y2="789.03" gradientTransform="translate(1641.71 -770)" xlink:href="#未命名的渐变_5"/><linearGradient id="未命名的渐变_7" x1="-1638.5" y1="267.66" x2="-1638.92" y2="263.18" gradientTransform="matrix(0.29, -0.96, 0.96, 0.29, 222.05, -1631.42)" gradientUnits="userSpaceOnUse"><stop offset="0" stop-color="#2329f0"/><stop offset="0.15" stop-color="#332de7"/><stop offset="0.44" stop-color="#5c39cf"/><stop offset="0.85" stop-color="#9f4baa"/><stop offset="1" stop-color="#ba539a"/></linearGradient><linearGradient id="未命名的渐变_8" x1="-839.15" y1="731.68" x2="-839.57" y2="727.21" gradientTransform="matrix(-0.98, 0.22, 0.22, 0.98, -972.89, -509.81)" xlink:href="#未命名的渐变_7"/><linearGradient id="未命名的渐变_9" x1="-563.35" y1="783.9" x2="-561.69" y2="783.9" gradientTransform="matrix(-1, 0, 0, 1, -550.94, -770)" gradientUnits="userSpaceOnUse"><stop offset="0" stop-color="#150d9c"/><stop offset="0.21" stop-color="#1f13a6"/><stop offset="0.56" stop-color="#3824bf"/><stop offset="1" stop-color="#623fe9"/></linearGradient><linearGradient id="未命名的渐变_10" x1="-563.35" y1="789.09" x2="-561.69" y2="789.09" xlink:href="#未命名的渐变_9"/><linearGradient id="未命名的渐变_11" x1="-619.47" y1="821.09" x2="-619.47" y2="811.93" gradientTransform="matrix(0, -1, -1, 0, 824.26, -603.84)" gradientUnits="userSpaceOnUse"><stop offset="0" stop-color="#673ab7"/><stop offset="0.45" stop-color="#9347a7"/><stop offset="0.8" stop-color="#b0509e"/><stop offset="1" stop-color="#ba539a"/></linearGradient><linearGradient id="未命名的渐变_12" x1="-559.06" y1="781.07" x2="-560.15" y2="779.02" gradientTransform="matrix(-1, 0, 0, 1, -550.94, -770)" gradientUnits="userSpaceOnUse"><stop offset="0" stop-color="#0d035c"/><stop offset="0.03" stop-color="#0e0563"/><stop offset="0.3" stop-color="#17149f"/><stop offset="0.53" stop-color="#1e20cb"/><stop offset="0.7" stop-color="#2226e6"/><stop offset="0.81" stop-color="#2329f0"/></linearGradient><linearGradient id="未命名的渐变_13" x1="-562.44" y1="782.3" x2="-561.1" y2="780.08" gradientTransform="matrix(-1, 0, 0, 1, -550.94, -770)" gradientUnits="userSpaceOnUse"><stop offset="0" stop-color="#673ab7"/><stop offset="0.41" stop-color="#8643ac"/><stop offset="1" stop-color="#ba539a"/></linearGradient><linearGradient id="未命名的渐变_14" x1="-1690.03" y1="-339.71" x2="-1688.19" y2="-339.71" gradientTransform="translate(356.98 -1677.92) rotate(-90)" xlink:href="#未命名的渐变"/><linearGradient id="未命名的渐变_15" x1="-556.95" y1="790.25" x2="-555.96" y2="790.25" gradientTransform="matrix(-1, 0, 0, 1, -550.94, -770)" xlink:href="#未命名的渐变_11"/><linearGradient id="未命名的渐变_16" x1="-555.85" y1="790.58" x2="-555.21" y2="790.58" gradientTransform="matrix(-1, 0, 0, 1, -550.94, -770)" xlink:href="#未命名的渐变_11"/><radialGradient id="未命名的渐变_17" cx="-711.43" cy="19115.76" r="1.83" gradientTransform="matrix(-1.34, 0, 0, 0.32, -948.3, -6189.68)" gradientUnits="userSpaceOnUse"><stop offset="0" stop-color="#2657f4"/><stop offset="0.02" stop-color="#3361f5"/><stop offset="0.12" stop-color="#6386f7"/><stop offset="0.21" stop-color="#8da6f9"/><stop offset="0.32" stop-color="#b0c2fb"/><stop offset="0.42" stop-color="#cdd8fc"/><stop offset="0.54" stop-color="#e3e9fe"/><stop offset="0.66" stop-color="#f3f6fe"/><stop offset="0.8" stop-color="#fcfdff"/><stop offset="1" stop-color="#fff"/></radialGradient></defs><title>homeBack</title><g id="图层_2" data-name="图层 2"><g id="图层_1-2" data-name="图层 1-2"><path class="cls-1" d="M0,20.89H22.55a1.58,1.58,0,0,1,.22-.46A12.07,12.07,0,0,0,24.47,18a4.46,4.46,0,0,0-3.19-6c-1.83-.4-3.59.11-5.06-1.33q-1.86-1.8-3.53-3.77a14.13,14.13,0,0,0-2.13-2.27,4,4,0,0,0-2.92-.92c-1.45.2-2.52,1.41-3.45,2.55-.32.39-.64.78-1,1.18A18.11,18.11,0,0,0,1.68,9.73a14,14,0,0,0-1,2.7A6.57,6.57,0,0,1,0,13.79Z"/><path class="cls-2" d="M29.06,20.92a2.36,2.36,0,0,0-.6-.5,29.4,29.4,0,0,0-3.39-1.48,6.68,6.68,0,0,1-3.65-3c-.74-1.58-.36-3.48-.91-5.14a4.9,4.9,0,0,0-2.59-2.94,5.1,5.1,0,0,0-3.87-.12c-1.53.62-2.83,1.94-4.47,2A4.84,4.84,0,0,1,6.22,8.15,38,38,0,0,0,3.53,5.43,7,7,0,0,0,.76,4.12,5.52,5.52,0,0,0,0,4V20.92Z"/><g id="_编组_" data-name=" 编组 "><g id="_编组_2" data-name=" 编组 2"><path id="_路径_" data-name=" 路径 " class="cls-3" d="M25.51,17.78h0a5.79,5.79,0,0,1-3.81,2.29s0,.06,0,.06a5.86,5.86,0,0,0,3.85-2.32Z"/></g><path id="_路径_2" data-name=" 路径 2" class="cls-3" d="M25.79,17.37c.06.46-.48.59-.48.59C25.41,17.28,25.84,17.37,25.79,17.37Z"/><path id="_路径_3" data-name=" 路径 3" class="cls-3" d="M25.74,18.28c-.27.38-.75.11-.75.11C25.48,17.93,25.79,18.28,25.74,18.28Z"/><path id="_路径_4" data-name=" 路径 4" class="cls-3" d="M25.18,18.9c-.32.34-.76,0-.76,0C25,18.52,25.18,18.91,25.18,18.9Z"/><path id="_路径_5" data-name=" 路径 5" class="cls-3" d="M24.58,19.48c-.39.24-.73-.2-.73-.2A.57.57,0,0,1,24.58,19.48Z"/><path id="_路径_6" data-name=" 路径 6" class="cls-3" d="M23.79,20c-.45.12-.65-.4-.65-.4C23.84,19.6,23.79,20,23.79,20Z"/><path id="_路径_7" data-name=" 路径 7" class="cls-3" d="M23,20.43c-.47,0-.53-.55-.53-.55C23.15,20,23,20.43,23,20.43Z"/><path id="_路径_8" data-name=" 路径 8" class="cls-3" d="M25.06,17.63c.3.35-.07.76-.07.76C24.66,17.8,25.06,17.63,25.06,17.63Z"/><path id="_路径_9" data-name=" 路径 9" class="cls-3" d="M24.49,18.14c.3.35-.07.76-.07.76C24.08,18.28,24.49,18.14,24.49,18.14Z"/><path id="_路径_10" data-name=" 路径 10" class="cls-3" d="M23.91,18.52c.3.35-.07.76-.07.76C23.48,18.74,23.84,18.56,23.91,18.52Z"/><path id="_路径_11" data-name=" 路径 11" class="cls-3" d="M23.22,18.92c.3.35-.07.76-.07.76C22.84,19.09,23.22,18.92,23.22,18.92Z"/><path id="_路径_12" data-name=" 路径 12" class="cls-3" d="M22.57,19.14c.3.35-.07.76-.07.76C22.16,19.28,22.57,19.14,22.57,19.14Z"/></g><g id="_编组_3" data-name=" 编组 3"><g id="_编组_4" data-name=" 编组 4"><path class="cls-4" d="M21.68,17.59a.51.51,0,0,0,0,.17,1.15,1.15,0,0,0,0,.16h0V18a1,1,0,0,0,.25-.11.54.54,0,0,0,.15-.22H22v-.06H21.9l-.06.05a.1.1,0,0,0,0-.06.14.14,0,0,0,0-.07h0a.29.29,0,0,0-.15.06.15.15,0,0,0,0-.08h0Z"/></g><g id="_编组_5" data-name=" 编组 5"><g id="_编组_6" data-name=" 编组 6"><path class="cls-3" d="M21.64,18h0a.86.86,0,0,0,.21-.1A.47.47,0,0,0,22,17.7h0a.47.47,0,0,1-.13.19A.81.81,0,0,1,21.64,18Z"/></g></g><g id="_编组_7" data-name=" 编组 7"><g id="_编组_8" data-name=" 编组 8"><path class="cls-3" d="M21.66,18h0a.73.73,0,0,1,0-.2.4.4,0,0,1,.07-.18h0a.4.4,0,0,0-.07.18A.68.68,0,0,0,21.66,18Z"/></g></g><g id="_编组_9" data-name=" 编组 9"><path id="_路径_13" data-name=" 路径 13" class="cls-3" d="M21.84,17.62h0l-.17.35h0l.17-.34Z"/></g><g id="_编组_10" data-name=" 编组 10"><path class="cls-3" d="M21.49,17.93a.2.2,0,0,0,0,.06h.09a.09.09,0,0,0,0-.08h0A.23.23,0,0,1,21.49,17.93Z"/></g><path id="_路径_14" data-name=" 路径 14" class="cls-3" d="M21.3,18.79h0l.07-.16a3.25,3.25,0,0,0,.28-.59h0a3,3,0,0,1-.27.57Z"/></g><g id="_编组_11" data-name=" 编组 11"><g id="_编组_12" data-name=" 编组 12"><path class="cls-5" d="M16.07,17a.61.61,0,0,0,.12.16l.16.12h.11a1.19,1.19,0,0,0,.1-.31.65.65,0,0,0-.08-.31h0a.28.28,0,0,0,0,.1h0l0-.05h0a.21.21,0,0,0,0,.09.12.12,0,0,0,0-.07h-.08a.34.34,0,0,0,0,.17h-.09Z"/></g><g id="_编组_13" data-name=" 编组 13"><g id="_编组_14" data-name=" 编组 14"><path class="cls-3" d="M16.65,17.34h0a1,1,0,0,0,.09-.27.56.56,0,0,0-.07-.27h0a.56.56,0,0,1,.07.27A1,1,0,0,1,16.65,17.34Z"/></g></g><g id="_编组_15" data-name=" 编组 15"><g id="_编组_16" data-name=" 编组 16"><path class="cls-3" d="M16.68,17.28h0a.88.88,0,0,1-.2-.13.48.48,0,0,1-.1-.21h0a.48.48,0,0,0,.1.21A.82.82,0,0,0,16.68,17.28Z"/></g></g><g id="_编组_17" data-name=" 编组 17"><path id="_路径_15" data-name=" 路径 15" class="cls-3" d="M16.51,16.84h0l.17.43h0l-.16-.42Z"/></g><g id="_编组_18" data-name=" 编组 18"><path class="cls-3" d="M16.52,17.37a.24.24,0,0,0,0,.07h.06a.43.43,0,0,0,0-.11v-.11h0a.12.12,0,0,0,0,.06h0Z"/></g><path id="_路径_16" data-name=" 路径 16" class="cls-3" d="M17.09,18.28h0L17,18.09a3.9,3.9,0,0,0-.29-.73h0a3.58,3.58,0,0,1,.28.7C17,18.16,17.06,18.28,17.09,18.28Z"/></g><g id="_编组_19" data-name=" 编组 19"><g id="_编组_20" data-name=" 编组 20"><path class="cls-6" d="M22.24,17.59a.51.51,0,0,0-.09.14,1.13,1.13,0,0,0,0,.16h0V18a1,1,0,0,0,.27,0,.54.54,0,0,0,.21-.15h-.06v-.05h-.13a.14.14,0,0,0,0-.07h0a.28.28,0,0,0-.13,0,.15.15,0,0,0,0-.09Z"/></g><g id="_编组_21" data-name=" 编组 21"><g id="_编组_22" data-name=" 编组 22"><path class="cls-3" d="M22.08,18h0a.86.86,0,0,0,.24,0,.47.47,0,0,0,.19-.13h0a.47.47,0,0,1-.19.13A.81.81,0,0,1,22.08,18Z"/></g></g><g id="_编组_23" data-name=" 编组 23"><g id="_编组_24" data-name=" 编组 24"><path class="cls-3" d="M22.18,18.06h0a.73.73,0,0,1,0-.2.4.4,0,0,1,.13-.15h0a.4.4,0,0,0-.13.15A.68.68,0,0,0,22.18,18.06Z"/></g></g><g id="_编组_25" data-name=" 编组 25"><path id="_路径_17" data-name=" 路径 17" class="cls-3" d="M22.44,17.79h0l-.28.26h0l.27-.26Z"/></g><g id="_编组_26" data-name=" 编组 26"><path class="cls-3" d="M22,18h.1l.08-.06h-.09Z"/></g><path id="_路径_18" data-name=" 路径 18" class="cls-3" d="M21.49,18.68h0l.12-.13a3.25,3.25,0,0,0,.47-.45h0a3,3,0,0,1-.45.44Z"/></g><g id="_编组_27" data-name=" 编组 27"><g id="_编组_28" data-name=" 编组 28"><path class="cls-7" d="M20.21,16.67a.86.86,0,0,0,0,.29,1.94,1.94,0,0,0,.08.26v.06h0a1.68,1.68,0,0,0,.36-.28.91.91,0,0,0,.16-.42v-.06a.39.39,0,0,0-.26,0h0v-.1h0a.3.3,0,0,0-.08.11.18.18,0,0,0,0-.11.24.24,0,0,0-.06-.1h0a.48.48,0,0,0-.16.18.25.25,0,0,0-.07-.13h0Z"/></g><g id="_编组_29" data-name=" 编组 29"><g id="_编组_30" data-name=" 编组 30"><path class="cls-8" d="M20.25,17.34h0a1.46,1.46,0,0,0,.32-.24.8.8,0,0,0,.14-.36v-.05h0a.8.8,0,0,1-.14.36A1.36,1.36,0,0,1,20.25,17.34Z"/></g></g><g id="_编组_31" data-name=" 编组 31"><g id="_编组_32" data-name=" 编组 32"><path class="cls-8" d="M20.34,17.28h0a1.23,1.23,0,0,1-.13-.31.67.67,0,0,1,0-.33h0a.67.67,0,0,0,0,.33A1.15,1.15,0,0,0,20.34,17.28Z"/></g></g><g id="_编组_33" data-name=" 编组 33"><path id="_路径_19" data-name=" 路径 19" class="cls-8" d="M20.5,16.61h0q-.08.31-.15.63h0q.07-.31.15-.62Z"/></g><g id="_编组_34" data-name=" 编组 34"><path class="cls-3" d="M20.16,17.17a.34.34,0,0,0,0,.11.47.47,0,0,0,0,.08h0l.13-.1c.06,0,.06-.15.06-.15h-.06a.17.17,0,0,0-.06.06Z"/></g><path id="_路径_20" data-name=" 路径 20" class="cls-3" d="M20,18.8h0a.59.59,0,0,0,0-.29,5.51,5.51,0,0,0,.25-1.08h0a5,5,0,0,1-.24,1C20,18.54,20,18.66,20,18.8Z"/></g><g id="_编组_35" data-name=" 编组 35"><g id="_编组_36" data-name=" 编组 36"><path class="cls-9" d="M19.39,20.83A1.59,1.59,0,0,1,18,19.92a2.15,2.15,0,0,1-.08-2.42.84.84,0,0,1,.27-.24,1.13,1.13,0,0,1,.6-.06,1.2,1.2,0,0,1,.74.23,1,1,0,0,0,.24.21c.19.09.39-.06.57-.15a.74.74,0,0,1,1,.21,1.35,1.35,0,0,1,.1.5c0,.06,0,.16.09.16a.18.18,0,0,0,.11,0,1.64,1.64,0,0,1,.55-.08.67.67,0,0,1,.54.26c.45.61-.93,1.49-1.36,1.74l-.25.12A4.6,4.6,0,0,1,19.39,20.83Z"/></g><g id="_编组_37" data-name=" 编组 37" class="cls-10"><g id="_编组_38" data-name=" 编组 38"><path id="_路径_21" data-name=" 路径 21" class="cls-3" d="M19.48,20.73h0a28.36,28.36,0,0,1,2.75-2C21.24,19.33,20.4,20.08,19.48,20.73Z"/></g><g id="_编组_39" data-name=" 编组 39"><path id="_路径_22" data-name=" 路径 22" class="cls-3" d="M21.84,18.65h0a2.39,2.39,0,0,1-.18.43h0a2.42,2.42,0,0,0,.25-.42Z"/></g><g id="_编组_40" data-name=" 编组 40"><path id="_路径_23" data-name=" 路径 23" class="cls-3" d="M21.24,19.37h0a2.2,2.2,0,0,0,.28-.61A2.19,2.19,0,0,1,21.24,19.37Z"/></g><g id="_编组_41" data-name=" 编组 41"><path id="_路径_24" data-name=" 路径 24" class="cls-3" d="M21.14,19a4.12,4.12,0,0,1-.29.67h0a4.13,4.13,0,0,0,.28-.66Z"/></g><g id="_编组_42" data-name=" 编组 42"><path id="_路径_25" data-name=" 路径 25" class="cls-3" d="M20.71,19.28h0a2.85,2.85,0,0,1-.38.83h0a2.87,2.87,0,0,0,.38-.84Z"/></g><g id="_编组_43" data-name=" 编组 43"><path id="_路径_26" data-name=" 路径 26" class="cls-3" d="M19.79,20.45h0q.32-.48.6-1Z"/></g><g id="_编组_44" data-name=" 编组 44"><path id="_路径_27" data-name=" 路径 27" class="cls-3" d="M22.13,19.05a2.65,2.65,0,0,0-.52.09h0a2.64,2.64,0,0,1,.51-.09Z"/></g><g id="_编组_45" data-name=" 编组 45"><path id="_路径_28" data-name=" 路径 28" class="cls-3" d="M21.56,19.4h0a2.92,2.92,0,0,0-.54.15h0a2.89,2.89,0,0,1,.53-.15Z"/></g><g id="_编组_46" data-name=" 编组 46"><path id="_路径_29" data-name=" 路径 29" class="cls-3" d="M21,19.81h0a1.45,1.45,0,0,0-.48.11h0a1.43,1.43,0,0,1,.47-.11Z"/></g><g id="_编组_47" data-name=" 编组 47"><path id="_路径_30" data-name=" 路径 30" class="cls-3" d="M20.72,20.12a.87.87,0,0,0-.26,0,1.75,1.75,0,0,1-.32.09h0a5.32,5.32,0,0,1,.58-.12Z"/></g><g id="_编组_48" data-name=" 编组 48"><path id="_路径_31" data-name=" 路径 31" class="cls-3" d="M20.33,20.37a2.28,2.28,0,0,0-.55.11h0A2.27,2.27,0,0,1,20.33,20.37Z"/></g></g><g id="_编组_49" data-name=" 编组 49" class="cls-10"><g id="_编组_50" data-name=" 编组 50"><path id="_路径_32" data-name=" 路径 32" class="cls-3" d="M18.92,20.51h0c.65-.92,1.19-1.91,1.92-2.78C20.11,18.59,19.58,19.59,18.92,20.51Z"/></g><g id="_编组_51" data-name=" 编组 51"><path id="_路径_33" data-name=" 路径 33" class="cls-3" d="M20.49,17.77a2.4,2.4,0,0,1-.09.48h0A2.42,2.42,0,0,0,20.49,17.77Z"/></g><g id="_编组_52" data-name=" 编组 52"><path id="_路径_34" data-name=" 路径 34" class="cls-3" d="M20.1,18.67h0a2.21,2.21,0,0,0,.06-.67A2.2,2.2,0,0,1,20.1,18.67Z"/></g><g id="_编组_53" data-name=" 编组 53"><path id="_路径_35" data-name=" 路径 35" class="cls-3" d="M19.84,18.36a4.13,4.13,0,0,1,0,.73h0a4.12,4.12,0,0,0,0-.72Z"/></g><g id="_编组_54" data-name=" 编组 54"><path id="_路径_36" data-name=" 路径 36" class="cls-3" d="M19.56,18.73h0a2.85,2.85,0,0,1-.08.91h0a2.87,2.87,0,0,0,.08-.92Z"/></g><g id="_编组_55" data-name=" 编组 55"><path id="_路径_37" data-name=" 路径 37" class="cls-3" d="M19.1,20.2h0q.12-.58.21-1.17Q19.24,19.62,19.1,20.2Z"/></g><g id="_编组_56" data-name=" 编组 56"><path id="_路径_38" data-name=" 路径 38" class="cls-3" d="M20.84,18.06a2.65,2.65,0,0,0-.45.27h0a2.63,2.63,0,0,1,.45-.26Z"/></g><g id="_编组_57" data-name=" 编组 57"><path id="_路径_39" data-name=" 路径 39" class="cls-3" d="M20.41,18.59h0a2.92,2.92,0,0,0-.46.32h0a2.88,2.88,0,0,1,.45-.32Z"/></g><g id="_编组_58" data-name=" 编组 58"><path id="_路径_40" data-name=" 路径 40" class="cls-3" d="M20,19.17h0a1.39,1.39,0,0,0-.42.26h0c.14-.08.25-.26.41-.26Z"/></g><g id="_编组_59" data-name=" 编组 59"><path id="_路径_41" data-name=" 路径 41" class="cls-3" d="M19.84,19.51a.87.87,0,0,0-.23.13,1.74,1.74,0,0,1-.27.19h0a5.32,5.32,0,0,1,.5-.31Z"/></g><g id="_编组_60" data-name=" 编组 60"><path id="_路径_42" data-name=" 路径 42" class="cls-3" d="M19.1,20.21h0a2.28,2.28,0,0,1,.48-.29A2.28,2.28,0,0,0,19.1,20.21Z"/></g></g><g id="_编组_61" data-name=" 编组 61" class="cls-10"><g id="_编组_62" data-name=" 编组 62"><path id="_路径_43" data-name=" 路径 43" class="cls-3" d="M18.46,20.54h0c.11-1.12.09-2.26.29-3.37C18.54,18.28,18.56,19.42,18.46,20.54Z"/></g><g id="_编组_63" data-name=" 编组 63"><path id="_路径_44" data-name=" 路径 44" class="cls-3" d="M18.49,17.37a2.39,2.39,0,0,1,.16.46h0A2.42,2.42,0,0,0,18.49,17.37Z"/></g><g id="_编组_64" data-name=" 编组 64"><path id="_路径_45" data-name=" 路径 45" class="cls-3" d="M18.59,18.34h0a2.2,2.2,0,0,0-.28-.61A2.19,2.19,0,0,1,18.59,18.34Z"/></g><g id="_编组_65" data-name=" 编组 65"><path id="_路径_46" data-name=" 路径 46" class="cls-3" d="M18.58,18.85h0a4.13,4.13,0,0,0-.32-.65A4.14,4.14,0,0,1,18.58,18.85Z"/></g><g id="_编组_66" data-name=" 编组 66"><path id="_路径_47" data-name=" 路径 47" class="cls-3" d="M18.15,18.67h0a2.85,2.85,0,0,1,.39.83h0a2.87,2.87,0,0,0-.39-.84Z"/></g><g id="_编组_67" data-name=" 编组 67"><path id="_路径_48" data-name=" 路径 48" class="cls-3" d="M18.1,19.05h0q.21.55.39,1.12h0q-.18-.56-.4-1.12Z"/></g><g id="_编组_68" data-name=" 编组 68"><path id="_路径_49" data-name=" 路径 49" class="cls-3" d="M18.65,17.92h0a2.62,2.62,0,0,1,.27-.45A2.65,2.65,0,0,0,18.65,17.92Z"/></g><g id="_编组_69" data-name=" 编组 69"><path id="_路径_50" data-name=" 路径 50" class="cls-3" d="M18.85,18.13h0a2.91,2.91,0,0,0-.24.5h0a2.89,2.89,0,0,1,.23-.5Z"/></g><g id="_编组_70" data-name=" 编组 70"><path id="_路径_51" data-name=" 路径 51" class="cls-3" d="M18.79,18.81h0a1.3,1.3,0,0,0-.23.44h0a1.35,1.35,0,0,1,.22-.43Z"/></g><g id="_编组_71" data-name=" 编组 71"><path id="_路径_52" data-name=" 路径 52" class="cls-3" d="M18.71,19.43a1.75,1.75,0,0,1-.14.3h0a5.32,5.32,0,0,1,.28-.52A.87.87,0,0,0,18.71,19.43Z"/></g><g id="_编组_72" data-name=" 编组 72"><path id="_路径_53" data-name=" 路径 53" class="cls-3" d="M18.49,20.18h0a2.28,2.28,0,0,1,.27-.49A2.29,2.29,0,0,0,18.49,20.18Z"/></g></g></g><g id="_编组_73" data-name=" 编组 73"><g id="_编组_74" data-name=" 编组 74"><path class="cls-11" d="M17.3,20.85a1.59,1.59,0,0,0,1.43-.91,2.15,2.15,0,0,0,.06-2.42.84.84,0,0,0-.27-.24,1.13,1.13,0,0,0-.6-.06,1.2,1.2,0,0,0-.74.23,1,1,0,0,1-.24.21c-.19.09-.39-.06-.57-.15a.74.74,0,0,0-1,.21,1.35,1.35,0,0,0-.1.5c0,.06,0,.16-.09.16a.18.18,0,0,1-.11,0,1.64,1.64,0,0,0-.55-.08.67.67,0,0,0-.54.22c-.45.61.93,1.49,1.36,1.74l.25.13A4.6,4.6,0,0,0,17.3,20.85Z"/></g><g id="_编组_75" data-name=" 编组 75" class="cls-10"><g id="_编组_76" data-name=" 编组 76"><path id="_路径_54" data-name=" 路径 54" class="cls-3" d="M17.21,20.71h0a28.36,28.36,0,0,0-2.75-2C15.43,19.28,16.29,20.06,17.21,20.71Z"/></g><g id="_编组_77" data-name=" 编组 77"><path id="_路径_55" data-name=" 路径 55" class="cls-3" d="M14.79,18.64a2.39,2.39,0,0,0,.25.42h0A2.41,2.41,0,0,1,14.79,18.64Z"/></g><g id="_编组_78" data-name=" 编组 78"><path id="_路径_56" data-name=" 路径 56" class="cls-3" d="M15.43,19.36h0a2.21,2.21,0,0,1-.28-.61A2.19,2.19,0,0,0,15.43,19.36Z"/></g><g id="_编组_79" data-name=" 编组 79"><path id="_路径_57" data-name=" 路径 57" class="cls-3" d="M15.84,19.67h0a4.13,4.13,0,0,1-.29-.67A4.13,4.13,0,0,0,15.84,19.67Z"/></g><g id="_编组_80" data-name=" 编组 80"><path id="_路径_58" data-name=" 路径 58" class="cls-3" d="M16,19.22h0a2.85,2.85,0,0,0,.38.83h0a2.87,2.87,0,0,1-.38-.84Z"/></g><g id="_编组_81" data-name=" 编组 81"><path id="_路径_59" data-name=" 路径 59" class="cls-3" d="M16.91,20.43h0q-.32-.48-.6-1Q16.59,19.93,16.91,20.43Z"/></g><g id="_编组_82" data-name=" 编组 82"><path id="_路径_60" data-name=" 路径 60" class="cls-3" d="M14.56,19a2.65,2.65,0,0,1,.52.09h0a2.63,2.63,0,0,0-.51-.09Z"/></g><g id="_编组_83" data-name=" 编组 83"><path id="_路径_61" data-name=" 路径 61" class="cls-3" d="M15.13,19.38h0a2.91,2.91,0,0,1,.54.15h0a2.89,2.89,0,0,0-.53-.15Z"/></g><g id="_编组_84" data-name=" 编组 84"><path id="_路径_62" data-name=" 路径 62" class="cls-3" d="M15.68,19.8h0a1.45,1.45,0,0,1,.48.11h0a1.43,1.43,0,0,0-.47-.11Z"/></g><g id="_编组_85" data-name=" 编组 85"><path id="_路径_63" data-name=" 路径 63" class="cls-3" d="M16,20.1a.87.87,0,0,1,.26,0,1.74,1.74,0,0,0,.32.09h0a5.33,5.33,0,0,0-.58-.12Z"/></g><g id="_编组_86" data-name=" 编组 86"><path id="_路径_64" data-name=" 路径 64" class="cls-3" d="M16.35,20.36a2.28,2.28,0,0,1,.55.11h0A2.27,2.27,0,0,0,16.35,20.36Z"/></g></g><g id="_编组_87" data-name=" 编组 87" class="cls-10"><g id="_编组_88" data-name=" 编组 88"><path id="_路径_65" data-name=" 路径 65" class="cls-3" d="M17.79,20.49h0c-.65-.92-1.19-1.91-1.92-2.78C16.58,18.57,17.11,19.57,17.79,20.49Z"/></g><g id="_编组_89" data-name=" 编组 89"><path id="_路径_66" data-name=" 路径 66" class="cls-3" d="M16.18,17.75a2.4,2.4,0,0,0,.09.48h0A2.43,2.43,0,0,1,16.18,17.75Z"/></g><g id="_编组_90" data-name=" 编组 90"><path id="_路径_67" data-name=" 路径 67" class="cls-3" d="M16.58,18.65h0a2.21,2.21,0,0,1-.06-.67A2.19,2.19,0,0,0,16.58,18.65Z"/></g><g id="_编组_91" data-name=" 编组 91"><path id="_路径_68" data-name=" 路径 68" class="cls-3" d="M16.84,18.37a4.13,4.13,0,0,0,0,.72h0a4.13,4.13,0,0,1,0-.73Z"/></g><g id="_编组_92" data-name=" 编组 92"><path id="_路径_69" data-name=" 路径 69" class="cls-3" d="M17.13,18.71h0a2.85,2.85,0,0,0,.08.91h0a2.87,2.87,0,0,1-.08-.92Z"/></g><g id="_编组_93" data-name=" 编组 93"><path id="_路径_70" data-name=" 路径 70" class="cls-3" d="M17.58,20.19h0q-.12-.58-.21-1.17Q17.44,19.61,17.58,20.19Z"/></g><g id="_编组_94" data-name=" 编组 94"><path id="_路径_71" data-name=" 路径 71" class="cls-3" d="M15.79,18.05a2.66,2.66,0,0,1,.46.26h0a2.63,2.63,0,0,0-.45-.26Z"/></g><g id="_编组_95" data-name=" 编组 95"><path id="_路径_72" data-name=" 路径 72" class="cls-3" d="M16.26,18.57h0a2.91,2.91,0,0,1,.46.32h0a2.89,2.89,0,0,0-.45-.32Z"/></g><g id="_编组_96" data-name=" 编组 96"><path id="_路径_73" data-name=" 路径 73" class="cls-3" d="M16.66,19.15h0a1.21,1.21,0,0,1,.42.26h0c-.14-.08-.25-.26-.41-.26Z"/></g><g id="_编组_97" data-name=" 编组 97"><path id="_路径_74" data-name=" 路径 74" class="cls-3" d="M17.08,19.62a1.74,1.74,0,0,0,.27.19h0a5.34,5.34,0,0,0-.5-.31A.87.87,0,0,1,17.08,19.62Z"/></g><g id="_编组_98" data-name=" 编组 98"><path id="_路径_75" data-name=" 路径 75" class="cls-3" d="M17.58,20.19h0a2.27,2.27,0,0,0-.48-.29A2.29,2.29,0,0,1,17.58,20.19Z"/></g></g><g id="_编组_99" data-name=" 编组 99" class="cls-10"><g id="_编组_100" data-name=" 编组 100"><path id="_路径_76" data-name=" 路径 76" class="cls-3" d="M17.94,17.16c.2,1.11.18,2.25.28,3.37h0c-.11-1.12-.09-2.26-.29-3.37Z"/></g><g id="_编组_101" data-name=" 编组 101"><path id="_路径_77" data-name=" 路径 77" class="cls-3" d="M18.19,17.35a2.39,2.39,0,0,0-.16.46h0A2.42,2.42,0,0,1,18.19,17.35Z"/></g><g id="_编组_102" data-name=" 编组 102"><path id="_路径_78" data-name=" 路径 78" class="cls-3" d="M18.08,18.28h0a2.21,2.21,0,0,1,.28-.61A2.19,2.19,0,0,0,18.08,18.28Z"/></g><g id="_编组_103" data-name=" 编组 103"><path id="_路径_79" data-name=" 路径 79" class="cls-3" d="M18.1,18.84h0a4.13,4.13,0,0,1,.32-.65A4.14,4.14,0,0,0,18.1,18.84Z"/></g><g id="_编组_104" data-name=" 编组 104"><path id="_路径_80" data-name=" 路径 80" class="cls-3" d="M18.54,18.65h0a2.85,2.85,0,0,0-.39.83h0a2.87,2.87,0,0,1,.39-.84Z"/></g><g id="_编组_105" data-name=" 编组 105"><path id="_路径_81" data-name=" 路径 81" class="cls-3" d="M18.58,19h0q-.21.55-.39,1.12h0q.18-.56.4-1.12Z"/></g><g id="_编组_106" data-name=" 编组 106"><path id="_路径_82" data-name=" 路径 82" class="cls-3" d="M18,17.9h0a2.63,2.63,0,0,0-.27-.45A2.65,2.65,0,0,1,18,17.9Z"/></g><g id="_编组_107" data-name=" 编组 107"><path id="_路径_83" data-name=" 路径 83" class="cls-3" d="M17.79,18.11h0a2.92,2.92,0,0,1,.24.5h0a2.89,2.89,0,0,0-.23-.5Z"/></g><g id="_编组_108" data-name=" 编组 108"><path id="_路径_84" data-name=" 路径 84" class="cls-3" d="M17.91,18.79h0c.13.12.15.29.23.44h0a1.35,1.35,0,0,0-.22-.43Z"/></g><g id="_编组_109" data-name=" 编组 109"><path id="_路径_85" data-name=" 路径 85" class="cls-3" d="M18,19.41a1.74,1.74,0,0,0,.14.3h0a5.36,5.36,0,0,0-.28-.52A.87.87,0,0,1,18,19.41Z"/></g><g id="_编组_110" data-name=" 编组 110"><path id="_路径_86" data-name=" 路径 86" class="cls-3" d="M18.18,20.16h0a2.28,2.28,0,0,0-.27-.49A2.29,2.29,0,0,1,18.18,20.16Z"/></g></g></g><path id="_路径_87" data-name=" 路径 87" class="cls-3" d="M26.59,20.78h-.06a.91.91,0,0,0,0-.32.67.67,0,0,0-.47.12H26a1.14,1.14,0,0,0-.13-.3.8.8,0,0,0-.42.35.93.93,0,0,0-.12-.23.66.66,0,0,0-.32.27H24.6a1,1,0,0,0,0-.21.65.65,0,0,0-.32.07.93.93,0,0,0-.13-.25.67.67,0,0,0-.35.3h-.11a.91.91,0,0,0,0-.34.66.66,0,0,0-.45.1h0a.84.84,0,0,0-.15-.7.67.67,0,0,0-.36.33.86.86,0,0,0-.41-.27.57.57,0,0,0-.06.13h0a.84.84,0,0,0-.41-.56.67.67,0,0,0-.2.48h-.08a.87.87,0,0,0-.11-.46.69.69,0,0,0-.51.54h-.06a.94.94,0,0,0-.17-.21.66.66,0,0,0-.26.32h-.13a.87.87,0,0,0-.1-.45.68.68,0,0,0-.49.45.85.85,0,0,0-.48-.37.69.69,0,0,0,0,.76h-.08A1.13,1.13,0,0,0,19,20a.82.82,0,0,0-.53.51.87.87,0,0,0-.26-.38.69.69,0,0,0-.28.71h0a.91.91,0,0,0-.29-.16.63.63,0,0,0-.09.21Z"/><path id="_路径_88" data-name=" 路径 88" class="cls-3" d="M20.79,20.78h0a.91.91,0,0,0,0-.32.67.67,0,0,0-.47.12h-.09a1.14,1.14,0,0,0-.13-.3.8.8,0,0,0-.46.37.94.94,0,0,0-.12-.23.66.66,0,0,0-.32.27h-.41a1,1,0,0,0,0-.21.65.65,0,0,0-.32.07.93.93,0,0,0-.13-.25.67.67,0,0,0-.33.28h-.12a.9.9,0,0,0,0-.34.66.66,0,0,0-.45.1h0a.84.84,0,0,0-.15-.7.67.67,0,0,0-.36.33.86.86,0,0,0-.41-.27.57.57,0,0,0-.06.13h0a.84.84,0,0,0-.41-.56.67.67,0,0,0-.2.48h0a.87.87,0,0,0-.11-.46.69.69,0,0,0-.51.54h-.07a.93.93,0,0,0-.17-.21.66.66,0,0,0-.26.32h-.14a.87.87,0,0,0-.1-.45.68.68,0,0,0-.49.45.85.85,0,0,0-.48-.37.69.69,0,0,0,0,.76h-.08A1.14,1.14,0,0,0,13.3,20a.82.82,0,0,0-.53.51.87.87,0,0,0-.26-.38.69.69,0,0,0-.28.71h0a.91.91,0,0,0-.29-.16.63.63,0,0,0-.09.21Z"/><path class="cls-12" d="M4,19.18a5.61,5.61,0,0,0,.84,0v.06a5.67,5.67,0,0,1-.84,0,.54.54,0,0,1-.35.6s-.21-.32.25-.61a5.71,5.71,0,0,1-.6,0,.54.54,0,0,1-.49.5s-.12-.35.37-.52a5.75,5.75,0,0,1-.59-.12.55.55,0,0,1-.62.35s0-.39.51-.39a5.74,5.74,0,0,1-.58-.2.56.56,0,0,1-.7.2s.07-.37.59-.25a5.72,5.72,0,0,1-.56-.28.56.56,0,0,1-.72.09s.12-.33.59-.16l-.33-.24a.55.55,0,0,1-.57-.42s.35-.18.59.36l.33.22a.48.48,0,0,1-.1-.55s.41,0,.28.65a5.66,5.66,0,0,0,.54.27.5.5,0,0,1-.15-.6s.4,0,.28.65a5.66,5.66,0,0,0,.61.21.53.53,0,0,1-.2-.64s.41,0,.28.66a5.68,5.68,0,0,0,.63.13.52.52,0,0,1-.19-.63s.4,0,.28.64a5.68,5.68,0,0,0,.62,0,.54.54,0,0,1-.23-.66S4.17,18.55,4,19.18Z"/><path class="cls-13" d="M5.78,18a5.62,5.62,0,0,1-.11.83h.11A5.66,5.66,0,0,0,5.9,18a.54.54,0,0,0,.62-.31s-.3-.23-.62.21a5.69,5.69,0,0,0,0-.61.54.54,0,0,0,.53-.45s-.34-.15-.54.33a5.74,5.74,0,0,0-.09-.6.55.55,0,0,0,.4-.6s-.37,0-.42.48a5.75,5.75,0,0,0-.16-.59.56.56,0,0,0,.25-.69s-.36,0-.28.57a5.74,5.74,0,0,0-.24-.58.56.56,0,0,0,.14-.71s-.34.1-.2.58l-.21-.38A.55.55,0,0,0,4.7,14s-.2.34.32.61l.2.34a.48.48,0,0,0-.54-.14s0,.4.63.32a5.65,5.65,0,0,1,.23.56A.5.5,0,0,0,5,15.54s0,.4.63.32a5.68,5.68,0,0,1,.2.62.53.53,0,0,0-.67-.2s0,.41.64.32a5.69,5.69,0,0,1,.09.63A.52.52,0,0,0,5.23,17s0,.4.62.32a5.66,5.66,0,0,1,0,.64.54.54,0,0,0-.64-.27S5.23,18.06,5.78,18Z"/><g id="_编组_111" data-name=" 编组 111"><g id="_编组_112" data-name=" 编组 112"><path class="cls-14" d="M3.92,17.09v.05c.25.36.47.82.67,1.14s.45.62.68.92a1.69,1.69,0,0,1,.23.36.49.49,0,0,1,0,.41c-.15.4-.73.12-1,0a4.63,4.63,0,0,1-1.35-.85L3,19a5.43,5.43,0,0,1-.81-1.2A3.39,3.39,0,0,1,1.69,16c0-.09,0-.28.11-.32s.27.06.35.06a2.94,2.94,0,0,1,.69.3A3.59,3.59,0,0,1,3.92,17.09Z"/></g><path class="cls-15" d="M3.73,18l.62.63a5.5,5.5,0,0,0-.56-1.21h0a5.5,5.5,0,0,1,.6,1.25l.88.88h0L4.71,19a3.8,3.8,0,0,1-1.28-.29h0A3.74,3.74,0,0,0,4.65,19l-.77-.77h0a2.45,2.45,0,0,1-.5,0,2.09,2.09,0,0,1-.45-.16h0a2,2,0,0,0,.45.16,2.3,2.3,0,0,0,.46,0L3.64,18l-.36-.39h0l-.19-.23a2.16,2.16,0,0,1-1-.57h0a2.11,2.11,0,0,0,.91.54,6.23,6.23,0,0,1-.71-1.09h0a6.55,6.55,0,0,0,.87,1.28,6.48,6.48,0,0,0-.3-.9h0a6.53,6.53,0,0,1,.32,1h0Z"/></g><g id="_编组_113" data-name=" 编组 113"><g id="_编组_114" data-name=" 编组 114"><path class="cls-14" d="M4.23,17.69h0c.12.32.32.69.43,1s.19.62.27.93a1.43,1.43,0,0,0,.12.34.41.41,0,0,0,.28.21c.34.06.45-.47.51-.71A3.9,3.9,0,0,0,6,18.12V18a4.58,4.58,0,0,0-.39-1.15,2.86,2.86,0,0,0-.91-1.24.26.26,0,0,0-.27-.09.43.43,0,0,0-.13.26,2.48,2.48,0,0,0-.15.62A3,3,0,0,0,4.23,17.69Z"/></g><path class="cls-15" d="M5.25,17.72V18a1.94,1.94,0,0,0,.22-.32,1.71,1.71,0,0,0,.12-.36h0a1.76,1.76,0,0,1-.13.39,2.06,2.06,0,0,1-.24.35h0a5.7,5.7,0,0,1,.13.91,3.15,3.15,0,0,0,.44-1h0a3.2,3.2,0,0,1-.46,1l.09.66h0l-.14-1a4.64,4.64,0,0,1-.53-1h0a4.63,4.63,0,0,0,.52,1,6.29,6.29,0,0,1-.11-.74,1.39,1.39,0,0,0-.09-.49h0a5.52,5.52,0,0,1-.49-.72h0a5.45,5.45,0,0,0,.45.66,5.51,5.51,0,0,0-.35-1.2h0a5.26,5.26,0,0,1,.36,1,1.78,1.78,0,0,0,.1-.89h0a1.82,1.82,0,0,1-.12.94l.06.25h0A.59.59,0,0,0,5.25,17.72Z"/></g><g id="_编组_115" data-name=" 编组 115"><g id="_编组_116" data-name=" 编组 116"><path class="cls-16" d="M5.19,19.18a.73.73,0,0,0-.68.09,1.57,1.57,0,0,0-.2.19.26.26,0,0,1-.12.09.3.3,0,0,1-.2-.06.92.92,0,0,0-1,0,.68.68,0,0,0-.2.89.73.73,0,0,0,.35.26.85.85,0,0,0,.46,0,1.87,1.87,0,0,1,.35-.1.51.51,0,0,1,.27.11c.33.22.74.43,1.11.11a1.16,1.16,0,0,0,.21-.27,1,1,0,0,0,.1-.77A.89.89,0,0,0,5.19,19.18Z"/></g><g id="_编组_117" data-name=" 编组 117" class="cls-10"><g id="_编组_118" data-name=" 编组 118"><path id="_路径_89" data-name=" 路径 89" class="cls-3" d="M3.12,20.07h0a2.57,2.57,0,0,1,1-.18A2.59,2.59,0,0,1,5.26,20h0a2.51,2.51,0,0,0-1.07-.13,2.68,2.68,0,0,0-1.06.19Z"/></g><g id="_编组_119" data-name=" 编组 119"><path id="_路径_90" data-name=" 路径 90" class="cls-3" d="M3.94,19.88l-.67-.2h0Z"/></g><g id="_编组_120" data-name=" 编组 120"><path id="_路径_91" data-name=" 路径 91" class="cls-3" d="M3.4,20.35a3,3,0,0,1,.53-.44h0A3,3,0,0,0,3.4,20.35Z"/></g><g id="_编组_121" data-name=" 编组 121"><path id="_路径_92" data-name=" 路径 92" class="cls-3" d="M4.3,20.28l.5-.35h0l-.5.35Z"/></g><g id="_编组_122" data-name=" 编组 122"><path id="_路径_93" data-name=" 路径 93" class="cls-3" d="M4.21,19.56h0a3.23,3.23,0,0,1,.63.35h0a3.19,3.19,0,0,0-.62-.35Z"/></g></g></g><g id="_编组_123" data-name=" 编组 123"><g id="_编组_124" data-name=" 编组 124"><path class="cls-17" d="M4.65,19.65A.73.73,0,0,1,4.74,19a1.57,1.57,0,0,1,.19-.2A.26.26,0,0,0,5,18.65a.3.3,0,0,0-.06-.2.92.92,0,0,1,0-1,.68.68,0,0,1,.89-.17.73.73,0,0,1,.28.39.85.85,0,0,1,0,.46,1.86,1.86,0,0,0-.1.35.51.51,0,0,0,.11.27c.22.33.43.74.11,1.11a1.16,1.16,0,0,1-.27.21,1,1,0,0,1-.77.09A.89.89,0,0,1,4.65,19.65Z"/></g><g id="_编组_125" data-name=" 编组 125" class="cls-10"><g id="_编组_126" data-name=" 编组 126"><path id="_路径_94" data-name=" 路径 94" class="cls-3" d="M5.59,17.63h0a2.57,2.57,0,0,0-.19,1,2.6,2.6,0,0,0,.12,1.13h0a2.51,2.51,0,0,1-.13-1.07,2.68,2.68,0,0,1,.19-1.06Z"/></g><g id="_编组_127" data-name=" 编组 127"><path id="_路径_95" data-name=" 路径 95" class="cls-3" d="M5.36,18.46a5.94,5.94,0,0,1-.2-.67h0Q5.26,18.13,5.36,18.46Z"/></g><g id="_编组_128" data-name=" 编组 128"><path id="_路径_96" data-name=" 路径 96" class="cls-3" d="M5.86,17.91h0a3,3,0,0,0-.45.53h0a3,3,0,0,1,.44-.52Z"/></g><g id="_编组_129" data-name=" 编组 129"><path id="_路径_97" data-name=" 路径 97" class="cls-3" d="M5.4,19.28h0l.35-.5Z"/></g><g id="_编组_130" data-name=" 编组 130"><path id="_路径_98" data-name=" 路径 98" class="cls-3" d="M5,18.72H5a3.22,3.22,0,0,0,.35.63h0a3.18,3.18,0,0,1-.34-.62Z"/></g></g></g><g id="_编组_131" data-name=" 编组 131"><rect id="_矩形_" data-name=" 矩形 " class="cls-18" x="5" y="11.7" width="2.16" height="9.18"/><g id="_编组_132" data-name=" 编组 132"><path class="cls-8" d="M7.17,16.28V11.7H5v9.17H5V11.7H7.15v4.58Z"/></g></g><g id="_编组_133" data-name=" 编组 133"><rect id="_矩形_2" data-name=" 矩形 2" class="cls-14" x="12.38" y="12.07" width="1.66" height="8.82"/><g id="_编组_134" data-name=" 编组 134"><path class="cls-8" d="M14,16Z"/></g><g id="_编组_135" data-name=" 编组 135"><path class="cls-8" d="M14,15.59V12.06H12.34v8.85h.8a4.4,4.4,0,0,1-.77,0V12.38s-.05-.27,0-.27h1.51c.15,0,.15,0,.15.17v3.31Z"/></g><rect id="_矩形_3" data-name=" 矩形 3" class="cls-19" x="13.02" y="12.75" width="0.44" height="0.44"/><rect id="_矩形_4" data-name=" 矩形 4" class="cls-19" x="13.02" y="13.63" width="0.44" height="0.44"/><rect id="_矩形_5" data-name=" 矩形 5" class="cls-19" x="13.02" y="14.5" width="0.44" height="0.44"/><rect id="_矩形_6" data-name=" 矩形 6" class="cls-19" x="13.02" y="15.38" width="0.44" height="0.44"/><rect id="_矩形_7" data-name=" 矩形 7" class="cls-19" x="13.02" y="16.25" width="0.44" height="0.44"/><rect id="_矩形_8" data-name=" 矩形 8" class="cls-19" x="13.02" y="17.13" width="0.44" height="0.44"/><rect id="_矩形_9" data-name=" 矩形 9" class="cls-19" x="13.02" y="18.01" width="0.44" height="0.44"/><rect id="_矩形_10" data-name=" 矩形 10" class="cls-19" x="13.02" y="18.88" width="0.44" height="0.44"/><rect id="_矩形_11" data-name=" 矩形 11" class="cls-19" x="13.02" y="19.76" width="0.44" height="0.44"/></g><g id="_编组_136" data-name=" 编组 136"><rect id="_矩形_12" data-name=" 矩形 12" class="cls-19" x="10.75" y="12.1" width="1.66" height="8.79"/><g id="_编组_137" data-name=" 编组 137"><path class="cls-8" d="M10.79,15.78v-3a2.15,2.15,0,0,1,0-.6c0-.08,0-.08.21-.08h-.22v3.68Z"/></g><g id="_编组_138" data-name=" 编组 138"><path class="cls-8" d="M12.39,20.88H10.73V16h0V20.9H12.4Z"/></g><rect id="_矩形_13" data-name=" 矩形 13" class="cls-20" x="10.75" y="13.24" width="1.66" height="1.31"/><rect id="_矩形_14" data-name=" 矩形 14" class="cls-21" x="10.75" y="18.43" width="1.66" height="1.31"/></g><g id="_编组_139" data-name=" 编组 139"><rect id="_矩形_15" data-name=" 矩形 15" class="cls-19" x="17.06" y="11.73" width="1.72" height="9.13" transform="matrix(0.97, -0.26, 0.26, 0.97, -3.61, 5.2)"/><g id="_编组_140" data-name=" 编组 140"><path class="cls-8" d="M18.5,15.28l-1-3.64h0l-1.66.44h0l1.44-.41c.21-.1.15-.14.21,0a3.91,3.91,0,0,1,.15.57l.79,3Z"/></g><g id="_编组_141" data-name=" 编组 141"><path class="cls-8" d="M18.18,20.9l1.66-.44h0l-1.38-4.84h0l1,3.6.24.9s.13.24.09.34-.71.22-.82.22l-.83.22Z"/></g><g id="_编组_142" data-name=" 编组 142"><path class="cls-8" d="M18,13.53,16.31,14h0Z"/></g><g id="_编组_143" data-name=" 编组 143"><path class="cls-8" d="M16.48,13.05l1.26-.34h0Z"/></g><g id="_编组_144" data-name=" 编组 144"><path class="cls-8" d="M19.49,19.28l-1.7.44h0Z"/></g><g id="_编组_145" data-name=" 编组 145"><path class="cls-8" d="M18,18.75l1.26-.34h0Z"/></g></g><rect id="_矩形_16" data-name=" 矩形 16" class="cls-22" x="13.64" y="12.07" width="0.39" height="8.82"/><rect id="_矩形_17" data-name=" 矩形 17" class="cls-22" x="10.68" y="12.07" width="0.39" height="8.82"/><g id="_编组_146" data-name=" 编组 146"><rect id="_矩形_18" data-name=" 矩形 18" class="cls-23" x="14.22" y="11.64" width="2.16" height="9.18" transform="translate(-1.1 1.11) rotate(-4.01)"/><g id="_编组_147" data-name=" 编组 147"><path class="cls-8" d="M16.32,16.16,16,11.57h0l-2.15.15h0L14,12.87l.56,8h0l-.21-3L14,13.43,13.92,12V11.7h.36l1.07-.07a4.06,4.06,0,0,1,.72-.05v.33l.06.83.24,3.42Z"/></g><rect id="_矩形_19" data-name=" 矩形 19" class="cls-19" x="15" y="12.7" width="0.65" height="7.49" transform="translate(-1.11 1.11) rotate(-4.01)"/></g><g id="_编组_148" data-name=" 编组 148"><rect id="_矩形_20" data-name=" 矩形 20" class="cls-24" x="4.97" y="15.28" width="9.27" height="1.87" transform="translate(-7.07 25) rotate(-87.14)"/><g id="_编组_149" data-name=" 编组 149"><path class="cls-8" d="M10.56,16.28l.16-4.65h0l-1.87-.09h0v1.14L8.47,20.8h0l.15-3,.23-4.52V11.62h1.86v1.15l-.17,3.51Z"/></g><rect id="_矩形_21" data-name=" 矩形 21" class="cls-19" x="5.66" y="15.72" width="7.89" height="1.09" transform="translate(-7.12 25.05) rotate(-87.14)"/><g id="_编组_150" data-name=" 编组 150"><path class="cls-8" d="M10,17.42l.25-5.09h0l-1.09-.05h0v1l-.36,6.91h0L9,17.56l.19-3.85.06-1.19a.14.14,0,0,1,0-.18c.07-.11.59,0,.77,0s.29,0,.29.08a1.66,1.66,0,0,1,0,.47l-.09,1.76-.14,2.79Z"/></g></g><g id="_编组_151" data-name=" 编组 151"><rect id="_矩形_22" data-name=" 矩形 22" class="cls-19" x="2.5" y="14.78" width="10.42" height="1.66" transform="translate(-8.62 21.64) rotate(-84)"/><g id="_编组_152" data-name=" 编组 152"><path class="cls-8" d="M8.5,16h0L8.31,17.7Z"/></g><g id="_编组_153" data-name=" 编组 153"><path class="cls-8" d="M8.51,15.64l.54-5.1h0L7.4,10.37h0l-.28,2.7-.81,7.67h0L8,20.91H8l-.86-.09a4.4,4.4,0,0,1-.77-.07c-.06,0,0-.28,0-.28l.07-.66,1-9.14a.47.47,0,0,1,0-.27c.05-.09.42,0,.51,0l1,.1c.19,0,.13,0,.13.19l-.52,4.92Z"/></g><rect id="_矩形_23" data-name=" 矩形 23" class="cls-25" x="3.17" y="15.41" width="9.16" height="0.44" transform="translate(-8.6 21.71) rotate(-84)"/></g><rect id="_矩形_24" data-name=" 矩形 24" class="cls-22" x="15.99" y="11.71" width="0.39" height="9.12" transform="translate(-1.12 1.2) rotate(-4.11)"/><g id="_编组_154" data-name=" 编组 154"><g id="_编组_155" data-name=" 编组 155"><path class="cls-24" d="M10.65,9.41c-.12.12,0,.41,0,.56a3.12,3.12,0,0,0,.19.53l.14.24c0,.08,0,.15.14.2s.24,0,.24-.17a3.25,3.25,0,0,0-.38-1,1.34,1.34,0,0,1-.14-.27c0-.08-.06-.14-.14-.08Z"/></g><path id="_路径_99" data-name=" 路径 99" class="cls-3" d="M11,10l-.65.32L9.94,8.71h0l.74.07Z"/><polygon id="_路径_100" data-name=" 路径 100" class="cls-26" points="10.96 9.98 10.34 10.28 9.96 8.75 10.69 8.83 10.96 9.98"/><path id="_路径_101" data-name=" 路径 101" class="cls-27" d="M11,10.06l-.57.28h0a.08.08,0,0,1-.11,0L9.95,9.2a.09.09,0,0,1,0-.11l.69-.31Z"/><rect id="_矩形_25" data-name=" 矩形 25" class="cls-24" x="16.35" y="11.64" width="0.74" height="0.39"/><g id="_编组_156" data-name=" 编组 156"><path class="cls-27" d="M11.85,11.4c-.31.27.13.2.41.2s.61.06.76-.11.15-.45.27-.65a.57.57,0,0,1,.31-.26.6.6,0,0,1,.28,0,1,1,0,0,1,.57.32,1.83,1.83,0,0,1,.18.27.84.84,0,0,1,.1.3.59.59,0,0,0,.3.41c.1,0,.33.06.4-.07.16-.3-.17-.86-.3-1.12a3,3,0,0,0-.73-1,1.11,1.11,0,0,0-1.11-.23,1.67,1.67,0,0,0-.78.89,6.63,6.63,0,0,1-.36.7A1.63,1.63,0,0,1,11.85,11.4Z"/></g><g id="_编组_157" data-name=" 编组 157"><path class="cls-27" d="M12.13,11.28a1.94,1.94,0,0,0-.13.37,1.46,1.46,0,0,0-.1.34,1.12,1.12,0,0,0,.77.07,9,9,0,0,1,1.73-.21c.57,0,1,.21,1.57.21a1.19,1.19,0,0,0,.6-.1.4.4,0,0,0,.1-.24.24.24,0,0,0,0-.18.28.28,0,0,0-.16-.08,2.35,2.35,0,0,0-.58-.1c-.57-.1-1.12-.32-1.7-.42a5.68,5.68,0,0,0-1.4,0,1.45,1.45,0,0,0-.4.07.57.57,0,0,0-.27.2Z"/></g><g id="_编组_158" data-name=" 编组 158"><path id="_路径_102" data-name=" 路径 102" class="cls-3" d="M12.44,11h0a3,3,0,0,1,.91-.1,4.93,4.93,0,0,1,.92.07c.56.1,1.1.31,1.67.41h0c-.61-.11-1.19-.34-1.8-.43a5.18,5.18,0,0,0-.86,0,2.86,2.86,0,0,0-.85.1Z"/></g><g id="_编组_159" data-name=" 编组 159"><path class="cls-24" d="M9.85,10.9a.92.92,0,0,1-.23.38.2.2,0,0,1-.19,0c-.12,0-.15-.15-.23-.23a3.3,3.3,0,0,0-.28-.26s-.24-.19-.2-.18.13-.06.13-.06a.15.15,0,0,1,.13,0,.51.51,0,0,0,.21,0l.2-.08a1,1,0,0,0,.28.35Z"/></g><g id="_编组_160" data-name=" 编组 160"><path class="cls-24" d="M8.56,10.28a.59.59,0,0,0,.17.31.91.91,0,0,0,.54.12h.19a.32.32,0,0,0,.2-.41v0c-.06-.16-.28-.25-.28-.42h0a.15.15,0,0,1-.16-.05L9.1,9.66a.43.43,0,0,0-.31-.08.27.27,0,0,0-.14,0,.33.33,0,0,0-.1.28A1.38,1.38,0,0,0,8.56,10.28Z"/></g><g id="_编组_161" data-name=" 编组 161"><path id="_路径_103" data-name=" 路径 103" class="cls-3" d="M8.78,9.61h0a.42.42,0,0,1,.36.14.64.64,0,0,0,.12.14h.09c.07,0,.07-.05.07,0s-.09-.1,0,.05.27.14.27.44-.34.3-.58.3h0c.22,0,.48.06.58-.22s-.21-.4-.28-.63h0c-.17.05-.22-.14-.33-.22a.48.48,0,0,0-.3-.08Z"/></g><g id="_编组_162" data-name=" 编组 162"><path class="cls-28" d="M8.19,10.11a.14.14,0,0,1,0,.07.22.22,0,0,1,0,.07.3.3,0,0,0,0,.24.71.71,0,0,0,.32.44.37.37,0,0,0,.27.06.23.23,0,0,0,.15-.2c0-.11-.07-.12-.13-.19a.25.25,0,0,1,0-.17.07.07,0,0,1,0-.06c0-.06.07,0,.1,0s.07.07.1,0-.2-.17-.2-.17a.06.06,0,0,1,0-.07h0V9.81a.16.16,0,0,1,.08-.05A.45.45,0,0,0,9,9.67a.22.22,0,0,0,0-.26.24.24,0,0,1,0-.07V9.19A.18.18,0,0,0,8.89,9a.22.22,0,0,0-.23.14.3.3,0,0,1,0,.09c0,.06-.1.06-.15.06a.23.23,0,0,0-.19.15v.13l-.08.05a.24.24,0,0,0-.09.22.43.43,0,0,0,0,.05A1.24,1.24,0,0,0,8.19,10.11Z"/></g><g id="_编组_163" data-name=" 编组 163"><path class="cls-29" d="M11.31,10.72h.24a1,1,0,0,1,.93.56,1.86,1.86,0,0,1,.24.34.66.66,0,0,1,0,.22.42.42,0,0,1-.15.28.58.58,0,0,1-.33.11,3.45,3.45,0,0,1-.82,0,5,5,0,0,1-.71-.12,3.28,3.28,0,0,1-.61-.19,3.23,3.23,0,0,1-.57-.34.74.74,0,0,1-.21-.21c-.13-.23.07-.46.23-.62a1,1,0,0,1,.39-.25,1,1,0,0,1,.44,0,1.22,1.22,0,0,1,.33.13,1.42,1.42,0,0,0,.43.14h0Z"/></g><g id="_编组_164" data-name=" 编组 164"><path id="_路径_104" data-name=" 路径 104" class="cls-3" d="M10.68,10.67h0a1.21,1.21,0,0,0-.53-.15.81.81,0,0,0-.51.16c-.22.16-.51.45-.37.75h0c-.14-.31.21-.65.45-.79a1,1,0,0,1,.94,0Z"/></g><g id="_编组_165" data-name=" 编组 165"><path id="_路径_105" data-name=" 路径 105" class="cls-3" d="M12.68,11.89h0a1.3,1.3,0,0,0-.47-1,1,1,0,0,0-.5-.22,1.48,1.48,0,0,0-.56.08h0a1.4,1.4,0,0,1,.64-.07,1,1,0,0,1,.4.18,1.28,1.28,0,0,1,.5,1Z"/></g><g id="_编组_166" data-name=" 编组 166"><path class="cls-24" d="M10.79,9.56a1.56,1.56,0,0,1,.14.45,4.69,4.69,0,0,1,.17.93,1,1,0,0,1-.07.58.57.57,0,0,1-.31.23.71.71,0,0,1-.39,0c-.1,0-.09-.23-.1-.36s0-.13.07-.13a.49.49,0,0,0,.25,0,.4.4,0,0,0,.17-.29.89.89,0,0,0-.2-.87L10.3,10a.24.24,0,0,1-.07-.08.1.1,0,0,1,0-.1l.17.08h.06a1.37,1.37,0,0,0,0-.24,1,1,0,0,1,0-.25h0c.06.09.07.2.13.28a2.87,2.87,0,0,1,0-.37h.07A.73.73,0,0,1,10.79,9.56Z"/></g><g id="_编组_167" data-name=" 编组 167"><path id="_路径_106" data-name=" 路径 106" class="cls-3" d="M10.44,10.19h0a.73.73,0,0,1,.23.62,1.19,1.19,0,0,1,0,.31c-.06.24-.21.24-.4.24h0a.4.4,0,0,0,.35-.11.7.7,0,0,0,.1-.33.82.82,0,0,0-.22-.76Z"/></g><g id="_编组_168" data-name=" 编组 168"><path id="_路径_107" data-name=" 路径 107" class="cls-3" d="M10.68,11.81h0c.48-.18.42-.66.36-1.08a5.49,5.49,0,0,0-.19-.85,1.65,1.65,0,0,0-.24-.6h0a1.66,1.66,0,0,1,.24.61,6,6,0,0,1,.15.6,4.34,4.34,0,0,1,.08.69.58.58,0,0,1-.38.62Z"/></g><g id="_编组_169" data-name=" 编组 169"><path id="_路径_108" data-name=" 路径 108" class="cls-30" d="M16.83,11.46l.29-.18.08-.57a.49.49,0,0,1,.49-.43h0v1.83h-.85Z"/><rect id="_矩形_26" data-name=" 矩形 26" class="cls-31" x="17.51" y="10.18" width="0.18" height="1.99"/><circle id="_路径_109" data-name=" 路径 109" class="cls-19" cx="17.14" cy="11.73" r="0.17"/></g></g><g id="_编组_170" data-name=" 编组 170"><rect id="_矩形_27" data-name=" 矩形 27" class="cls-24" x="5.24" y="19.46" width="0.41" height="0.73" transform="translate(-14.13 13.52) rotate(-56.79)"/><g id="_编组_171" data-name=" 编组 171"><path class="cls-31" d="M3.23,18.28c.18.36.57.54.87.81a4.29,4.29,0,0,0,.85.78.54.54,0,0,0,.4,0,.26.26,0,0,0,.14-.09.16.16,0,0,0,0-.16v-.06l-.79-.78a2.11,2.11,0,0,1-.53-.72,1.53,1.53,0,0,1,0-.87,5.68,5.68,0,0,0,.21-1.06.69.69,0,0,0-.16-.63.66.66,0,0,0-.72,0H3.28c0,.55-.1,1.31-.1,1.86A1.7,1.7,0,0,0,3.23,18.28Z"/></g><path id="_路径_110" data-name=" 路径 110" class="cls-32" d="M5.69,19.75v.11l-.2.25H5.25v.52l-.09.09h0a.14.14,0,0,0-.14.14h.32l.66-1-.22-.22Z"/><path id="_路径_111" data-name=" 路径 111" class="cls-3" d="M6,19.82l-.66,1h-.1l.66-1Z"/><rect id="_矩形_28" data-name=" 矩形 28" class="cls-24" x="4.4" y="20.01" width="0.38" height="0.58"/><g id="_编组_172" data-name=" 编组 172"><path class="cls-31" d="M4,17.4a17.1,17.1,0,0,1,.29,2.25,1.52,1.52,0,0,0,.06.43.43.43,0,0,0,.3.29c.28.06.22-.38.22-.56a15,15,0,0,1,.09-2.05A12,12,0,0,0,5,16.28a1.34,1.34,0,0,0-.21-.9.49.49,0,0,0-.68-.13l0,0a1.18,1.18,0,0,0-.22.82A8.07,8.07,0,0,0,4,17.4Z"/></g><g id="_编组_173" data-name=" 编组 173"><path id="_路径_112" data-name=" 路径 112" class="cls-3" d="M3.84,16.21a16.81,16.81,0,0,0,.27,2.41c.05.4.06.8.11,1.19a.55.55,0,0,0,.35.51h0c-.4-.15-.37-1-.4-1.27a8,8,0,0,1-.11-.84A12.65,12.65,0,0,1,3.84,16.21Z"/></g><g id="_编组_174" data-name=" 编组 174"><path class="cls-33" d="M3.38,12.28c0,.22.23.36.28.57a1.4,1.4,0,0,0,0,.16.39.39,0,0,0,.17.18.9.9,0,0,1,.21.15.21.21,0,0,1,0,.23H4a.44.44,0,0,1,0,.06.15.15,0,0,0,.15.14.62.62,0,0,0,.4,0,.4.4,0,0,0,.19-.22,1.16,1.16,0,0,0,0-.16.3.3,0,0,1,.1-.11l.17-.2c.06-.05.12,0,.14-.16s-.07-.18-.15-.25a.41.41,0,0,1-.14-.27,2,2,0,0,0,0-.28.3.3,0,0,0-.28-.23.35.35,0,0,1-.15-.1.27.27,0,0,1-.1-.25.38.38,0,0,0-.32-.13.9.9,0,0,0-.4.08.57.57,0,0,0-.33.47v.17A.37.37,0,0,0,3.38,12.28Z"/></g><g id="_编组_175" data-name=" 编组 175"><path class="cls-24" d="M4.69,12.89h.09a.32.32,0,0,1-.09.39H4.59a1.62,1.62,0,0,1-.49.1H4l-.11-.07-.07,0a.14.14,0,0,1,0-.14c0-.06.17-.08.17-.14H4v-.32l.41-.4a.79.79,0,0,0,.15.51.23.23,0,0,0,.1.07Z"/></g><g id="_编组_176" data-name=" 编组 176"><path class="cls-24" d="M3.43,12.28a.74.74,0,0,0,.1.16l.21.25a.36.36,0,0,0,.24.15.24.24,0,0,0,.18-.09.54.54,0,0,0,.1-.18,1,1,0,0,0,.1-.4.55.55,0,0,0-.51-.47.45.45,0,0,0-.45.35A.41.41,0,0,0,3.43,12.28Z"/></g><g id="_编组_177" data-name=" 编组 177"><path id="_路径_113" data-name=" 路径 113" class="cls-3" d="M4.23,12.62h0c-.08.18-.25.34-.44.18a1.21,1.21,0,0,1-.15-.17.71.71,0,0,1-.24-.53h0a.52.52,0,0,0,.12.39,1.49,1.49,0,0,0,.31.35c.2.14.36,0,.43-.22Z"/></g><g id="_编组_178" data-name=" 编组 178"><path class="cls-19" d="M3.27,14.22v.87c0,.2-.17.68,0,.85a.34.34,0,0,0,.15.07,2.48,2.48,0,0,0,1.33,0A.63.63,0,0,0,5,15.9c.16-.13,0-.34,0-.59v-.76c0-.16-.06-.27.12-.33l.16-.05.31-.08a4,4,0,0,0-.16-.73.72.72,0,0,0-.16-.28A.69.69,0,0,0,5,13a.76.76,0,0,0-.44-.07.55.55,0,0,1-.12.34.33.33,0,0,1-.1.09H4.3A.53.53,0,0,1,3.78,13a.42.42,0,0,0-.34.07.46.46,0,0,0-.1.12,1.35,1.35,0,0,0-.26,1Z"/></g><g id="_编组_179" data-name=" 编组 179"><path id="_路径_114" data-name=" 路径 114" class="cls-3" d="M4.36,13.28h0A.37.37,0,0,0,4.65,13c0-.05-.07,0,0-.18s.43,0,.43,0h0a.84.84,0,0,0-.45-.07h0a.44.44,0,0,1-.33.45Z"/></g><g id="_编组_180" data-name=" 编组 180"><path id="_路径_115" data-name=" 路径 115" class="cls-3" d="M3.45,16h0c-.32-.09-.22-.45-.17-.69h0c-.06.26-.14.61.18.71Z"/></g><g id="_编组_181" data-name=" 编组 181"><path id="_路径_116" data-name=" 路径 116" class="cls-3" d="M5,15.89H5A2.1,2.1,0,0,1,3.46,16h0A2.11,2.11,0,0,0,5,15.89Z"/></g><path class="cls-33" d="M3.31,11.75h0c.1-.07.21,0,.33,0h.42a.62.62,0,0,1,.46.21.61.61,0,0,1,.07.18c0,.14.19.38.11.52a.08.08,0,0,1-.1,0,1.31,1.31,0,0,1-.31-.23.53.53,0,0,0-.45-.15.66.66,0,0,1-.3-.05.65.65,0,0,1-.19-.17.46.46,0,0,1-.08-.12A.24.24,0,0,1,3.31,11.75Z"/><g id="_编组_182" data-name=" 编组 182"><path class="cls-24" d="M3.15,15a.15.15,0,0,0,.14.14A.14.14,0,0,0,3.41,15a.4.4,0,0,0,0-.14v-.21a.45.45,0,0,0,0-.14.76.76,0,0,0-.16-.25.93.93,0,0,1-.1-.23v.06C3.11,14.38,3.25,14.67,3.15,15Z"/></g><g id="_编组_183" data-name=" 编组 183"><polygon id="_路径_117" data-name=" 路径 117" class="cls-2" points="2.79 13.41 2.98 13.64 3.58 13.38 3.35 12.85 2.79 13.41"/><polygon id="_路径_118" data-name=" 路径 118" class="cls-2" points="2.88 13.17 2.9 13.59 3.5 13.32 3.25 12.8 2.88 13.17"/><polygon id="_路径_119" data-name=" 路径 119" class="cls-2" points="3.08 12.9 2.81 13.56 3.48 13.31 3.17 12.77 3.08 12.9"/><polygon id="_路径_120" data-name=" 路径 120" class="cls-19" points="2.77 13.39 3.31 12.83 3.35 12.85 2.79 13.41 2.77 13.39"/><polygon id="_路径_121" data-name=" 路径 121" class="cls-19" points="2.77 13.39 3.23 12.79 3.25 12.8 2.81 13.4 2.77 13.39"/><polygon id="_路径_122" data-name=" 路径 122" class="cls-19" points="2.77 13.39 3.15 12.76 3.17 12.77 2.81 13.4 2.77 13.39"/><path id="_路径_123" data-name=" 路径 123" class="cls-34" d="M3.78,12.91l-1,.49.64,1.17.9-.42a.08.08,0,0,0,0-.11l-.5-1.1Z"/><polygon id="_路径_124" data-name=" 路径 124" class="cls-35" points="2.73 13.4 3.08 12.77 3.12 12.77 2.79 13.4 2.73 13.4"/><polygon id="_路径_125" data-name=" 路径 125" class="cls-35" points="2.79 13.4 3.42 14.57 3.37 14.57 2.73 13.4 2.79 13.4"/></g><g id="_编组_184" data-name=" 编组 184"><path class="cls-24" d="M4.4,14.86a.89.89,0,0,0,.74.13.49.49,0,0,0,.13-.09.78.78,0,0,0,.19-.77l-.23.07s-.22.06-.22.09v.12a.23.23,0,0,1,0,.1.2.2,0,0,1-.13.07H4.73a1.32,1.32,0,0,1-.36-.18,1.58,1.58,0,0,1-.26-.29h0c0,.05.08.13.08.13l-.29-.09a.22.22,0,0,0-.25.13.2.2,0,0,0,.11.25h.14l.16.05A.54.54,0,0,1,4.4,14.86Z"/></g><rect id="_矩形_29" data-name=" 矩形 29" class="cls-3" x="4.21" y="20.76" width="0.74" height="0.14"/><path id="_路径_126" data-name=" 路径 126" class="cls-36" d="M4.27,20.74H4.9a.32.32,0,0,0-.32-.32h0A.32.32,0,0,0,4.27,20.74Z"/><g id="_编组_185" data-name=" 编组 185"><path id="_路径_127" data-name=" 路径 127" class="cls-3" d="M5.15,14.19h0c-.06,0-.14,0-.14.1a.49.49,0,0,0,0,.19H5a1,1,0,0,1,0-.15c0-.12.07-.12.13-.12Z"/></g><g id="_编组_186" data-name=" 编组 186"><path id="_路径_128" data-name=" 路径 128" class="cls-3" d="M5.61,14.07a3.24,3.24,0,0,0-.47.14h0A3.23,3.23,0,0,1,5.61,14.07Z"/></g><g id="_编组_187" data-name=" 编组 187"><path id="_路径_129" data-name=" 路径 129" class="cls-3" d="M5.46,13.34a4.21,4.21,0,0,1,.16.73h0A4.21,4.21,0,0,0,5.46,13.34Z"/></g></g><g id="_编组_188" data-name=" 编组 188"><g id="_编组_189" data-name=" 编组 189"><path class="cls-3" d="M5.43,3.13h0a.72.72,0,0,0-1-.22h0a.69.69,0,0,1,.91.21Z"/></g><g id="_编组_190" data-name=" 编组 190"><path class="cls-3" d="M3.88,3h.06a.28.28,0,0,1,.25.31h0A.32.32,0,0,0,3.88,3Z"/></g><g id="_编组_191" data-name=" 编组 191"><path class="cls-3" d="M4.06,3.06h0a.82.82,0,0,1,1.53.1H6a.85.85,0,0,1-.28,0c-.08,0-.09-.15-.14-.25A.84.84,0,0,0,5.1,2.5.86.86,0,0,0,4,3Z"/></g><g id="_编组_192" data-name=" 编组 192"><path class="cls-3" d="M3.37,3.45h0A.56.56,0,0,1,4,3H3.93a.59.59,0,0,0-.64.54h0Z"/></g><g id="_编组_193" data-name=" 编组 193"><path class="cls-3" d="M2.29,3.9h.48a.44.44,0,0,1,.47-.41h0a.48.48,0,0,0-.53.36c0,.07.07.07,0,.07H2.31Z"/></g></g><path class="cls-24" d="M14.88,5.06A1.34,1.34,0,1,0,13,3.82a.94.94,0,0,1,.71.64h.17a.64.64,0,0,1,.64.54h.1a.48.48,0,0,1,.26.07Z"/><path class="cls-37" d="M14.92,5a1.34,1.34,0,1,0-1.37-2.2A1.33,1.33,0,0,1,15.47,4,1.33,1.33,0,0,1,14.92,5Z"/><g id="_编组_194" data-name=" 编组 194"><g id="_编组_195" data-name=" 编组 195"><g id="_编组_196" data-name=" 编组 196"><path class="cls-3" d="M12.27,4.52h0a.78.78,0,0,1,1-.24h0a.81.81,0,0,0-1.08.25Z"/></g><g id="_编组_197" data-name=" 编组 197"><path class="cls-3" d="M13.9,4.44h0a.36.36,0,0,0-.35.35h0a.32.32,0,0,1,.32-.32Z"/></g><g id="_编组_198" data-name=" 编组 198"><path class="cls-3" d="M13.72,4.48h0a1,1,0,0,0-1.79-.08c-.07.21,0,.21-.17.21h.15a.93.93,0,0,1,1.79-.13Z"/></g><g id="_编组_199" data-name=" 编组 199"><path class="cls-3" d="M15.67,5.49H15.2c-.07-.08,0,.08-.07-.08A.65.65,0,0,0,14.79,5c-.15,0-.17,0-.26-.11a1.93,1.93,0,0,0-.16-.26.68.68,0,0,0-.64-.17h0a.65.65,0,0,1,.76.51h0a.53.53,0,0,1,.55.49h.63Z"/></g></g><g id="_编组_200" data-name=" 编组 200"><path class="cls-3" d="M14.36,1.89v.39h0Z"/></g><g id="_编组_201" data-name=" 编组 201"><path class="cls-3" d="M13.39,2.14l.19.33h0Z"/></g><g id="_编组_202" data-name=" 编组 202"><path class="cls-3" d="M12.68,2.81h0L13,3h0l-.33-.16Z"/></g><g id="_编组_203" data-name=" 编组 203"><path class="cls-3" d="M16.06,4.78h0l-.38-.16h0l.33.19Z"/></g><g id="_编组_204" data-name=" 编组 204"><path class="cls-3" d="M16.28,3.84Z"/></g><g id="_编组_205" data-name=" 编组 205"><path class="cls-3" d="M16.06,2.84h0l-.33.22h0l.33-.19Z"/></g><g id="_编组_206" data-name=" 编组 206"><path class="cls-3" d="M15.33,2.16l-.19.33h0Z"/></g></g><g id="_编组_207" data-name=" 编组 207"><g id="_编组_208" data-name=" 编组 208"><path class="cls-3" d="M9.83,3.38h0a.35.35,0,0,1,.46-.11h0a.38.38,0,0,0-.5.12Z"/></g><g id="_编组_209" data-name=" 编组 209"><path class="cls-3" d="M10.58,3.35h0a.17.17,0,0,0-.17.17h0a.14.14,0,0,1,.14-.14h0Z"/></g><g id="_编组_210" data-name=" 编组 210"><path class="cls-3" d="M10.51,3.39h0a.45.45,0,0,0-.57-.29h0a.44.44,0,0,0-.26.24c-.07.1,0,.1-.07.1h.07a.41.41,0,0,1,.8-.06Z"/></g><g id="_编组_211" data-name=" 编组 211"><path class="cls-3" d="M10.89,3.64h0a.31.31,0,0,0-.38-.21h0a.28.28,0,0,1,.32.23h0Z"/></g></g><g id="_编组_212" data-name=" 编组 212"><g id="_编组_213" data-name=" 编组 213"><path class="cls-3" d="M17.48,4.71h0a.35.35,0,0,1,.46-.11h0a.38.38,0,0,0-.5.12Z"/></g><g id="_编组_214" data-name=" 编组 214"><path class="cls-3" d="M18.23,4.68h0a.17.17,0,0,0-.17.17h0a.14.14,0,0,1,.14-.14Z"/></g><g id="_编组_215" data-name=" 编组 215"><path class="cls-3" d="M18.16,4.71h0a.45.45,0,0,0-.57-.29h0a.44.44,0,0,0-.26.24c-.07.1,0,.1-.07.1h.07a.41.41,0,0,1,.8-.06Z"/></g><g id="_编组_216" data-name=" 编组 216"><path class="cls-3" d="M18.53,5h0a.31.31,0,0,0-.38-.21h0a.28.28,0,0,1,.32.23h0Z"/></g></g><polygon id="_路径_130" data-name=" 路径 130" class="cls-22" points="8.94 11.54 9.19 11.55 9.23 20.84 8.45 20.8 8.94 11.54"/><path class="cls-3" d="M28.84,20.9h-.06a5.21,5.21,0,0,0-1.1,0H.78a7.3,7.3,0,0,0,1.1,0Z"/><ellipse class="cls-38" cx="4.47" cy="0.89" rx="2.47" ry="0.89"/></g></g></svg>